# xmcd
#
# Track frame offsets:
# 150
# 17690
# 39141
# 62574
# 76300
# 92816
# 107419
# 125733
# 138720
# 157506
# 174507
# 194914
# 207262
# 224299
# 241700
# 260925
# 275233
# 290457
# 303905
#
# Disc length: 4363 seconds
#
# Revision: 0
# Processed by: cddbd v1.4PL0 Copyright (c) Steve Scherf et al.
# Submitted via: Audion 2.6.0 (http://www.panic.com/audion/)
#
DISCID=13110913
DTITLE=Volume 1 - Country 2001
DYEAR=1900
DGENRE=
TTITLE0=Austin-Blake Shelton
TTITLE1=ridin' with Private Malone-David Ball
TTITLE2=Cold One Comin' On-Montgomery Gentry
TTITLE3=I wanna Talk About Me-Toby Keith
TTITLE4=Love of a Woman-Travis tritt
TTITLE5=Something in the Water-Jeffrey Steele
TTITLE6=Where I Come From-Alan Jackson
TTITLE7=The Man He Was-George Jones
TTITLE8=Run-George Strait
TTITLE9=God Fearin' Women-Martina McBride
TTITLE10=Andry All the Time-Tim McGraw
TTITLE11=I'm Just Talkin' About Tonight-Toby Keith
TTITLE12=I Would've Loved You Anyway-Trisha Yearwood
TTITLE13=Grown Men Don't Cry-Tim McGraw
TTITLE14=I'm Already there-Lonestar
TTITLE15=That's All I Need to Know-Kenny Chesney
TTITLE16=What I Really Meant to say-Cyndi Thompson
TTITLE17=Every Time I Look at You-Blake Shelton
TTITLE18=Shine-Dolly Parton
EXTD=
EXTT0=
EXTT1=
EXTT2=
EXTT3=
EXTT4=
EXTT5=
EXTT6=
EXTT7=
EXTT8=
EXTT9=
EXTT10=
EXTT11=
EXTT12=
EXTT13=
EXTT14=
EXTT15=
EXTT16=
EXTT17=
EXTT18=
PLAYORDER=
